<?xml version="1.0" encoding="UTF-8" standalone="no"?>
<svg
   sodipodi:docname="6 - Soda.svg"
   inkscape:version="1.1.1 (1:1.1+202109281949+c3084ef5ed)"
   id="svg831"
   version="1.1"
   viewBox="0 0 22.577778 22.577778"
   height="64pt"
   width="64pt"
   inkscape:export-filename="/media/taufikramadhan/Data/Tr Design Studio/Project Design/TR Creative Design/Icon Design/Project Hiring/Icon Icons/010 - Food/Send/1 - Line/6 - Soda.png"
   inkscape:export-xdpi="576"
   inkscape:export-ydpi="576"
   xmlns:inkscape="http://www.inkscape.org/namespaces/inkscape"
   xmlns:sodipodi="http://sodipodi.sourceforge.net/DTD/sodipodi-0.dtd"
   xmlns="http://www.w3.org/2000/svg"
   xmlns:svg="http://www.w3.org/2000/svg"
   xmlns:rdf="http://www.w3.org/1999/02/22-rdf-syntax-ns#"
   xmlns:cc="http://creativecommons.org/ns#"
   xmlns:dc="http://purl.org/dc/elements/1.1/">
  <defs
     id="defs825">
    <pattern
       y="0"
       x="0"
       height="6"
       width="6"
       patternUnits="userSpaceOnUse"
       id="EMFhbasepattern" />
    <pattern
       y="0"
       x="0"
       height="6"
       width="6"
       patternUnits="userSpaceOnUse"
       id="EMFhbasepattern-9" />
    <pattern
       y="0"
       x="0"
       height="6"
       width="6"
       patternUnits="userSpaceOnUse"
       id="EMFhbasepattern-0" />
    <pattern
       y="0"
       x="0"
       height="6"
       width="6"
       patternUnits="userSpaceOnUse"
       id="EMFhbasepattern-7" />
    <pattern
       y="0"
       x="0"
       height="6"
       width="6"
       patternUnits="userSpaceOnUse"
       id="EMFhbasepattern-2" />
    <pattern
       y="0"
       x="0"
       height="6"
       width="6"
       patternUnits="userSpaceOnUse"
       id="EMFhbasepattern-98" />
    <pattern
       y="0"
       x="0"
       height="6"
       width="6"
       patternUnits="userSpaceOnUse"
       id="EMFhbasepattern-6" />
    <pattern
       y="0"
       x="0"
       height="6"
       width="6"
       patternUnits="userSpaceOnUse"
       id="EMFhbasepattern-01" />
    <pattern
       y="0"
       x="0"
       height="6"
       width="6"
       patternUnits="userSpaceOnUse"
       id="EMFhbasepattern-07" />
    <pattern
       y="0"
       x="0"
       height="6"
       width="6"
       patternUnits="userSpaceOnUse"
       id="EMFhbasepattern-8" />
    <pattern
       y="0"
       x="0"
       height="6"
       width="6"
       patternUnits="userSpaceOnUse"
       id="EMFhbasepattern-4" />
    <pattern
       y="0"
       x="0"
       height="6"
       width="6"
       patternUnits="userSpaceOnUse"
       id="EMFhbasepattern-40" />
    <pattern
       y="0"
       x="0"
       height="6"
       width="6"
       patternUnits="userSpaceOnUse"
       id="EMFhbasepattern-08" />
    <pattern
       y="0"
       x="0"
       height="6"
       width="6"
       patternUnits="userSpaceOnUse"
       id="EMFhbasepattern-04" />
    <pattern
       y="0"
       x="0"
       height="6"
       width="6"
       patternUnits="userSpaceOnUse"
       id="EMFhbasepattern-014" />
    <pattern
       y="0"
       x="0"
       height="6"
       width="6"
       patternUnits="userSpaceOnUse"
       id="EMFhbasepattern-27" />
    <pattern
       y="0"
       x="0"
       height="6"
       width="6"
       patternUnits="userSpaceOnUse"
       id="EMFhbasepattern-09" />
    <pattern
       y="0"
       x="0"
       height="6"
       width="6"
       patternUnits="userSpaceOnUse"
       id="EMFhbasepattern-5" />
    <pattern
       y="0"
       x="0"
       height="6"
       width="6"
       patternUnits="userSpaceOnUse"
       id="EMFhbasepattern-018" />
  </defs>
  <sodipodi:namedview
     inkscape:document-rotation="0"
     inkscape:snap-global="true"
     inkscape:snap-nodes="false"
     inkscape:bbox-nodes="true"
     inkscape:snap-bbox="true"
     showguides="false"
     inkscape:snap-midpoints="true"
     inkscape:snap-smooth-nodes="true"
     inkscape:snap-intersection-paths="true"
     inkscape:object-paths="true"
     inkscape:showpageshadow="false"
     inkscape:pagecheckerboard="true"
     inkscape:window-maximized="1"
     inkscape:window-y="31"
     inkscape:window-x="0"
     inkscape:window-height="705"
     inkscape:window-width="1366"
     units="pt"
     showgrid="false"
     inkscape:current-layer="layer1"
     inkscape:document-units="pt"
     inkscape:cy="42.525177"
     inkscape:cx="46.892628"
     inkscape:zoom="2.175182"
     inkscape:pageshadow="2"
     inkscape:pageopacity="0.0"
     borderopacity="1.0"
     bordercolor="#666666"
     pagecolor="#ffffff"
     id="base">
    <inkscape:grid
       id="grid1378"
       type="xygrid" />
    <sodipodi:guide
       inkscape:locked="false"
       id="guide1380"
       orientation="78.000048,0"
       position="0.97013831,21.607643" />
    <sodipodi:guide
       inkscape:locked="false"
       id="guide1382"
       orientation="0,78.000005"
       position="0.97013831,0.97013129" />
    <sodipodi:guide
       inkscape:locked="false"
       id="guide1384"
       orientation="-78.000048,0"
       position="21.607639,0.97013129" />
    <sodipodi:guide
       inkscape:locked="false"
       id="guide1386"
       orientation="0,-78.000005"
       position="21.607639,21.607643" />
  </sodipodi:namedview>
  <metadata
     id="metadata828">
    <rdf:RDF>
      <cc:Work
         rdf:about="">
        <dc:format>image/svg+xml</dc:format>
        <dc:type
           rdf:resource="http://purl.org/dc/dcmitype/StillImage" />
      </cc:Work>
    </rdf:RDF>
  </metadata>
  <g
     transform="translate(0,-274.42223)"
     id="layer1"
     inkscape:groupmode="layer"
     inkscape:label="Icon">
    <path
       id="rect24513"
       style="color:#000000;display:inline;fill:#000000;stroke-width:1.25802;stroke-linecap:round;stroke-linejoin:round;-inkscape-stroke:none;paint-order:markers fill stroke"
       d="m 11.621711,275.3924 c -0.363042,0 -0.665705,0.30331 -0.665705,0.66635 v 1.3314 c 0,0.24112 0.133541,0.45517 0.329601,0.57209 -0.0211,2.1878 -0.336184,3.95281 -1.285249,5.60778 -0.091258,0.16008 -0.035578,0.36371 0.12482,0.45442 0.159419,0.0917 0.363484,0.0366 0.455069,-0.12291 0.798212,-1.39191 1.173756,-2.86125 1.309956,-4.51365 h 3.12439 c 0.1362,1.6524 0.511744,3.12174 1.309956,4.51365 0,0 0.344595,0.62201 0.677404,1.47639 h -4.714538 c -0.184856,-6.6e-4 -0.334886,0.14929 -0.334154,0.33415 6.66e-4,0.1839 0.15026,0.33293 0.334154,0.3322 h 4.953126 c 0.209234,0.64902 0.371859,1.36293 0.371859,2.01922 0,0.72738 -0.125689,1.93922 -0.389414,2.97357 h -4.603368 c -0.182936,6.6e-4 -0.331574,0.14862 -0.332203,0.33155 -6.66e-4,0.1839 0.148306,0.33353 0.332203,0.33415 h 4.40444 c -0.112757,0.3173 -0.242966,0.59552 -0.390063,0.80807 -0.230834,0.33354 -0.211781,0.73951 -0.06826,1.06423 0.20283,0.45818 0.380311,0.85497 0.380311,1.12272 v 0.66571 h -4.992785 c -0.183894,6.6e-4 -0.332279,0.15024 -0.33155,0.33414 6.65e-4,0.18293 0.148618,0.33158 0.33155,0.33221 h 4.992783 c 0.363721,0 0.666356,-0.30264 0.666356,-0.66635 v -0.66571 c 0,-0.50883 -0.242875,-0.95348 -0.43752,-1.39317 -0.06103,-0.13808 -0.05159,-0.33062 0.0072,-0.41542 0.876154,-1.26605 1.096072,-3.58504 1.096072,-4.8257 0,-2.14504 -1.376266,-4.49351 -1.376266,-4.49351 -0.948879,-1.65464 -1.264026,-3.41927 -1.285251,-5.60647 0.197417,-0.11662 0.332202,-0.33126 0.332202,-0.5734 v -1.3314 c 0,-0.36304 -0.302659,-0.66635 -0.665704,-0.66635 z m 0,0.66635 h 3.661374 v 1.3314 H 14.616731 V 277.056 c -6.65e-4,-0.18293 -0.148618,-0.33091 -0.331553,-0.33154 -0.183892,-6.7e-4 -0.333519,0.14764 -0.334151,0.33154 v 0.33415 H 12.953768 V 277.056 c -6.65e-4,-0.1839 -0.150259,-0.33227 -0.33415,-0.33154 -0.182936,6.5e-4 -0.331574,0.14861 -0.332203,0.33154 v 0.33415 h -0.665704 z m 3.332422,1.99711 c 0.003,0.22543 0.0098,0.44767 0.01951,0.66635 h -3.04248 c 0.0098,-0.21873 0.01648,-0.44086 0.01951,-0.66635 z m -1.170184,1.99776 c -0.639453,0 -1.164331,0.52553 -1.164331,1.16499 0,0.63946 0.524878,1.16432 1.164331,1.16432 0.639456,0 1.166932,-0.52486 1.166932,-1.16432 0,-0.63946 -0.527476,-1.16499 -1.166932,-1.16499 z m 0,0.6657 c 0.279682,0 0.501229,0.21962 0.501229,0.49929 0,0.27968 -0.221547,0.49863 -0.501229,0.49863 -0.279683,0 -0.498626,-0.21895 -0.498626,-0.49863 0,-0.27967 0.218943,-0.49929 0.498626,-0.49929 z m -1.164331,1.99517 c -0.547545,0 -0.997907,0.45296 -0.997907,1.0005 0,0.54755 0.450362,0.99726 0.997907,0.99726 0.547545,0 0.999855,-0.44971 0.999855,-0.99726 0,-0.54754 -0.45231,-1.0005 -0.999855,-1.0005 z m -0.01754,0.66636 c 0.0058,-2.9e-4 0.01169,0 0.01754,0 0.187769,0 0.33415,0.14637 0.33415,0.33414 0,0.18778 -0.146381,0.33155 -0.33415,0.33155 -0.187772,0 -0.332203,-0.14377 -0.332203,-0.33155 0,-0.18189 0.135494,-0.32539 0.314648,-0.33414 z m -6.3072888,1.3314 v 0.33415 H 5.8572704 c -0.2163438,0 -0.4194103,0.10429 -0.5473852,0.27759 L 4.574618,286.3193 c -0.1790179,0.2424 -0.2749891,0.53615 -0.2749924,0.83799 v 6.75911 c 0,0.30183 0.095978,0.59819 0.2749924,0.84057 l 0.7352672,0.99531 c 0.1279515,0.17319 0.3309648,0.2776 0.5473852,0.2776 H 10.06148 c 0.21634,0 0.420062,-0.10429 0.548034,-0.2776 l 0.737218,-0.99531 c 0.179024,-0.24238 0.274992,-0.53874 0.274992,-0.84057 v -6.75911 c 0,-0.30184 -0.09599,-0.59559 -0.274992,-0.83799 l -0.737218,-0.99531 v -6.5e-4 -6.7e-4 -6.7e-4 -6.6e-4 C 10.481566,285.14815 10.2779,285.04635 10.06148,285.04635 H 8.2925532 v -0.33416 c 0,-0.55959 -0.463916,-0.99726 -1.0049938,-0.99053 -0.5410811,0.006 -0.9927714,0.43974 -0.9927712,0.99059 z m 1.3320543,0 v 0.33415 H 6.9604856 v -0.33415 c 0,-0.21577 0.1225328,-0.32494 0.330146,-0.32825 0.2076132,-0.004 0.3362106,0.10555 0.3362119,0.32825 z m 2.4469925,1.00505 0.737214,0.9979 c 0.0939,0.12715 0.144974,0.28199 0.144974,0.44207 v 0.54999 H 4.9653332 v -0.50318 h 4.2217635 c 0.1829356,-6.6e-4 0.3309282,-0.14926 0.3315507,-0.3322 6.656e-4,-0.18389 -0.1476599,-0.33353 -0.3315507,-0.33416 H 5.240978 l 0.6039437,-0.82042 z m 3.378584,1.32426 c -0.639643,0 -1.164984,0.5273 -1.164984,1.16694 v 0.66375 c 0,0.63964 0.525341,1.16693 1.164984,1.16693 0.639642,0 1.164334,-0.52729 1.164334,-1.16693 v -0.66375 c 0,-0.63964 -0.524692,-1.16694 -1.164334,-1.16694 z m 0,0.66571 c 0.282358,0 0.498629,0.21888 0.498629,0.50123 v 0.66375 c 0,0.28235 -0.216271,0.50123 -0.498629,0.50123 -0.282359,0 -0.49863,-0.21888 -0.49863,-0.50123 v -0.66375 c 0,-0.28235 0.216271,-0.50123 0.49863,-0.50123 z m -8.4870822,0.66636 h 5.9906892 v 4.32642 H 4.9653366 Z m 2.9956692,0.70731 c -0.7983625,0 -1.4497275,0.65651 -1.4497275,1.45687 0,0.80035 0.651365,1.45753 1.4497275,1.45753 0.7983659,0 1.447128,-0.65718 1.447128,-1.45753 0,-0.80036 -0.6487621,-1.45687 -1.447128,-1.45687 z m 0,0.6657 c 0.438373,0 0.7833742,0.34541 0.7833742,0.79117 0,0.44576 -0.3450012,0.79118 -0.7833742,0.79118 -0.4383728,0 -0.7840232,-0.34542 -0.7840232,-0.79118 0,-0.44576 0.3456504,-0.79117 0.7840232,-0.79117 z m 5.324337,2.62186 c -0.182816,6.7e-4 -0.330843,0.14873 -0.331554,0.33155 v 1.33206 c -6.65e-4,0.18383 0.147724,0.33344 0.331554,0.33416 0.184843,6.6e-4 0.334874,-0.14932 0.33415,-0.33416 v -1.33206 c -6.65e-4,-0.18382 -0.150322,-0.33227 -0.33415,-0.33155 z m 1.997761,0 c -0.183066,3.4e-4 -0.331487,0.14848 -0.332202,0.33155 0,0.33285 -0.05939,1.07829 0.430367,1.56805 0.129833,0.12909 0.339543,0.12909 0.469374,0 0.130822,-0.13013 0.130822,-0.34185 0,-0.47197 -0.175938,-0.17594 -0.235988,-0.76323 -0.235988,-1.09608 -6.65e-4,-0.18282 -0.148737,-0.33083 -0.331551,-0.33155 z m -4.328409,1.58235 H 4.9666081 l -0.00133,-0.58444 h 5.9906899 z m -5.1097632,1.40552 -0.5460905,-0.73982 h 5.3230317 l -0.548034,0.73982 z"
       sodipodi:nodetypes="sssccccccccccccscccccscsccccsssccsccssssccccccccccccccccccccssssssssssssssssssssssscscccsccssccssccccccscscssccscsccscccccccccsssssssssssssscccccsssssssssssccsccsccccccccccccccccc" />
  </g>
</svg>
